<?xml version="1.0" standalone="no"?><!DOCTYPE svg PUBLIC "-//W3C//DTD SVG 1.1//EN" "http://www.w3.org/Graphics/SVG/1.1/DTD/svg11.dtd" ><svg xmlns="http://www.w3.org/2000/svg"><metadata></metadata><defs><font id="Founder:FZCuYuan-M03S	Regular" horiz-adv-x="256"><font-face font-family="FZCuYuan-M03S" font-weight="400" font-stretch="normal" units-per-em="256" panose-1="2 0 0 0 0 0 0 0 0 0" ascent="229" descent="-71" x-height="0" bbox="3 -42 255 221" underline-thickness="12" underline-position="-59" unicode-range="U+0030-91cc" /><missing-glyph horiz-adv-x="256" d="M27 66 l0 108 q1 18 16 19 q15 -2 16 -19 l0 -108 q-1 -18 -16 -20 q-15 1 -16 20 ZM24 5 q2 17 19 19 q16 -2 18 -19 q-1 -16 -18 -17 q-17 2 -19 17 Z" /><glyph glyph-name="" unicode="0" d="M73 17 q37 -1 36 73 q2 72 -36 72 q-35 0 -35 -72 q0 -71 35 -73 ZM73 -12 q-63 3 -67 102 q4 100 67 103 q64 -3 68 -103 q-4 -99 -68 -102 Z" /><glyph glyph-name="" unicode="1" d="M45 1 l0 149 l-18 -5 q-16 -4 -20 11 q-3 15 12 20 l36 12 q21 5 22 -15 l0 -172 q-1 -11 -14 -12 q-17 1 -18 12 Z" /><glyph glyph-name="" unicode="2" d="M66 20 l54 0 q15 0 15 -15 q0 -14 -15 -14 l-94 0 q-12 1 -14 9 q0 12 2 18 q10 40 62 85 q22 20 22 37 q-2 22 -29 22 q-26 -2 -28 -30 q0 -11 -14 -11 q-17 1 -18 14 q4 57 66 58 q50 -4 55 -50 q2 -30 -20 -50 q-49 -47 -54 -60 q-3 -8 -1 -10 q2 -3 11 -3 Z" /><glyph glyph-name="" unicode="3" d="M134 46 q-2 -56 -65 -58 q-45 1 -60 39 q-3 18 7 21 q14 5 23 -12 q11 -18 32 -19 q29 0 31 26 q1 29 -39 30 q-14 2 -15 20 q0 17 15 20 q32 5 33 28 q-1 20 -26 21 q-21 0 -27 -21 q-3 -10 -14 -11 q-16 3 -16 17 q7 45 56 46 q56 -3 59 -52 q0 -36 -31 -47 q36 -10 37 -48 Z" /><glyph glyph-name="" unicode="4" d="M88 34 l-68 0 q-15 1 -16 14 q0 7 5 17 l58 116 q8 16 29 13 q23 -4 24 -23 l0 -107 l7 0 q16 0 16 -15 q-1 -14 -16 -15 l-7 0 l0 -30 q-1 -14 -16 -15 q-15 1 -16 14 l0 31 ZM54 64 l34 0 l0 97 l-41 -87 q-5 -9 7 -10 Z" /><glyph glyph-name="" unicode="5" d="M48 159 l0 -30 q0 -6 7 -7 q6 0 15 1 q58 3 63 -58 q0 -77 -67 -77 q-51 2 -58 37 q0 16 11 19 q14 0 19 -11 q9 -16 28 -16 q33 4 34 38 q1 39 -35 37 q-10 0 -23 -5 q-1 0 -3 -1 q-7 -4 -9 -3 q-12 2 -14 12 l0 86 q1 9 11 9 l91 0 q13 -1 14 -17 q-1 -13 -14 -14 l-70 0 Z" /><glyph glyph-name="" unicode="6" d="M44 108 q15 11 33 11 q60 0 61 -67 q-4 -62 -65 -64 q-59 1 -63 68 q-7 124 49 134 q42 9 66 -12 q6 -7 8 -14 q3 -14 -8 -19 q-12 -4 -20 5 q-18 19 -43 8 q-17 -12 -18 -50 ZM42 52 q2 -33 31 -35 q32 1 33 35 q-1 35 -30 36 q-32 -2 -34 -36 Z" /><glyph glyph-name="" unicode="7" d="M90 159 l-70 0 q-15 0 -16 16 q1 14 16 15 l94 0 q13 0 18 -9 q4 -10 0 -20 l-52 -161 q-4 -11 -15 -11 q-8 0 -14 7 q-4 5 0 16 l44 140 q1 6 -5 7 Z" /><glyph glyph-name="" unicode="8" d="M74 81 q-30 -2 -32 -32 q2 -31 32 -32 q28 2 31 32 q-1 30 -31 32 ZM73 -12 q-59 4 -63 62 q0 31 28 49 q-20 15 -20 40 q3 51 55 54 q53 -4 56 -54 q-1 -26 -20 -40 q28 -15 28 -49 q-4 -58 -64 -62 ZM73 162 q-22 -1 -23 -24 q1 -24 23 -25 q23 1 24 25 q-1 23 -24 24 Z" /><glyph glyph-name="" unicode="9" d="M104 69 q-14 -9 -36 -9 q-56 4 -59 66 q3 63 65 67 q62 -2 63 -71 q2 -76 -9 -99 q-15 -34 -57 -35 q-52 1 -62 41 q-3 18 9 24 q13 4 19 -10 q10 -27 33 -26 q33 1 34 52 ZM105 126 q-1 35 -32 36 q-30 -1 -32 -36 q2 -32 31 -35 q33 0 33 35 Z" /><glyph glyph-name="" unicode="&#x4e0a;" d="M26 12 l73 0 l0 177 q1 13 16 14 q14 -1 15 -14 l0 -49 l87 0 q13 -1 14 -15 q-1 -14 -14 -15 l-87 0 l0 -98 l102 0 q11 -1 12 -13 q-1 -13 -12 -14 l-206 0 q-12 1 -13 14 q1 12 13 13 Z" /><glyph glyph-name="" unicode="&#x4e0b;" d="M25 163 q-12 1 -13 14 q1 14 12 15 l208 0 q13 -1 14 -14 q0 -14 -13 -15 l-98 0 l0 -23 q40 -25 77 -59 q14 -15 6 -27 q-11 -10 -27 4 q-32 30 -56 48 l0 -118 q-1 -13 -14 -14 q-14 1 -15 14 l0 175 l-81 0 Z" /><glyph glyph-name="" unicode="&#x4e9b;" d="M59 93 q3 1 8 2 q6 2 8 2 l0 98 q1 12 15 13 q14 -1 15 -13 l0 -23 l23 0 q13 -1 14 -15 q-1 -15 -14 -16 l-23 0 l0 -37 q9 3 21 5 q12 2 16 -10 q2 -13 -9 -17 q-20 -4 -85 -20 q-15 -4 -23 -6 q-12 -2 -17 11 q-2 13 10 17 q5 1 11 3 l0 87 q1 13 15 13 q14 -1 15 -14 l0 -80 ZM169 64 q-25 0 -25 19 l0 110 q1 12 15 13 q13 -1 14 -13 l0 -33 q27 13 46 29 q12 9 22 -3 q8 -13 -3 -23 q-24 -18 -65 -35 l0 -29 q1 -6 7 -7 l24 0 q13 -3 11 29 q1 13 15 14 q14 -1 15 -14 q5 -60 -33 -57 l-43 0 ZM45 27 q-13 1 -14 15 q1 13 14 14 l166 0 q13 -1 14 -14 q-1 -14 -14 -15 l-166 0 ZM26 -18 q-12 1 -13 14 q1 12 13 13 l207 0 q13 -1 14 -13 q-1 -13 -14 -14 l-207 0 Z" /><glyph glyph-name="" unicode="&#x4eba;" d="M19 3 q57 41 81 109 q12 32 13 79 q1 17 16 18 q14 -1 15 -18 q0 -13 0 -24 q25 -107 91 -165 q14 -12 1 -24 q-11 -9 -26 3 q-49 43 -78 125 q-27 -81 -91 -124 q-17 -10 -25 -2 q-10 14 3 23 Z" /><glyph glyph-name="" unicode="&#x4ed8;" d="M183 191 q1 12 16 13 q14 -1 15 -13 l0 -29 l21 0 q10 -1 11 -15 q-1 -14 -11 -15 l-21 0 l0 -126 q-1 -35 -44 -32 q-23 1 -41 9 q-12 5 -9 17 q4 13 16 10 q20 -5 30 -7 q18 -3 17 12 l0 117 l-93 0 q-12 1 -13 15 q1 14 13 15 l93 0 l0 29 ZM128 39 q-1 3 -5 9 q-17 30 -27 45 q-7 13 4 21 q12 6 21 -6 q17 -25 32 -55 q5 -12 -6 -20 q-12 -6 -19 6 ZM14 108 q25 37 37 89 q2 12 15 11 q14 -3 14 -14 q-1 -9 -7 -30 q-3 -10 -5 -16 l0 -162 q-1 -15 -14 -17 q-14 2 -15 17 l0 103 q-11 -14 -23 -6 q-11 10 -2 25 Z" /><glyph glyph-name="" unicode="&#x4f4d;" d="M145 181 q-6 6 -8 10 q-6 23 20 21 q28 -19 22 -31 l50 0 q14 -1 15 -15 q-1 -14 -14 -15 l-140 0 q-14 1 -15 15 q1 14 15 15 l55 0 ZM10 103 q25 50 33 97 q3 11 19 10 q14 -4 13 -16 q-3 -22 -12 -45 l0 -164 q-1 -15 -15 -16 q-14 1 -15 16 l0 101 q-7 -10 -19 -3 q-9 9 -4 20 ZM107 33 q-2 12 -10 54 q-5 22 -7 34 q-1 14 13 18 q14 1 18 -13 q15 -74 16 -90 q-1 -12 -14 -14 q-13 -1 -16 11 ZM170 11 q17 71 21 117 q3 11 18 10 q13 -2 13 -14 q0 -30 -19 -113 l29 0 q13 -1 14 -13 q0 -14 -12 -15 l-151 0 q-14 1 -15 15 q2 12 16 13 l86 0 Z" /><glyph glyph-name="" unicode="&#x5199;" d="M17 140 l0 42 q0 19 23 19 l177 0 q24 2 24 -24 q0 -22 -8 -43 q-5 -12 -19 -9 q-13 5 -9 18 q0 1 2 5 q8 23 -1 23 l-156 0 q-4 0 -4 -4 l0 -27 q-1 -13 -14 -13 q-14 0 -15 13 ZM53 83 l8 73 q2 11 16 11 q14 -1 14 -12 l-1 -12 l99 0 q13 -1 14 -15 q-1 -14 -14 -15 l-102 0 l-2 -19 q0 -4 5 -4 l123 0 q21 0 21 -19 l0 -33 q0 -48 -14 -59 q-12 -12 -58 -1 q-13 4 -10 18 q4 12 18 9 q26 -6 30 -1 q6 4 5 36 l0 15 q1 5 -5 5 l-126 0 q-26 -2 -21 23 ZM24 8 q-12 1 -14 15 q1 14 13 15 l144 0 q13 -1 14 -15 q0 -14 -13 -15 l-144 0 Z" /><glyph glyph-name="" unicode="&#x51fa;" d="M112 123 l0 69 q1 13 16 14 q14 -1 15 -14 l0 -69 l50 0 q7 -1 6 7 l0 45 q1 13 15 13 q13 -1 14 -14 l0 -60 q1 -21 -23 -20 l-62 0 l0 -86 l54 0 q8 0 8 8 l0 52 q1 13 15 14 q13 -1 14 -14 l0 -66 q3 -24 -21 -21 l-166 0 q-25 -1 -24 19 l0 66 q1 13 15 14 q13 -1 14 -14 l0 -49 q0 -10 7 -9 l53 0 l0 86 l-64 0 q-22 -2 -20 22 l0 58 q1 13 15 14 q13 -1 14 -14 l0 -43 q0 -8 7 -8 l48 0 Z" /><glyph glyph-name="" unicode="&#x53cb;" d="M25 183 l51 0 q1 6 1 15 q1 5 1 6 q3 9 18 9 q13 -2 14 -12 q0 -2 -2 -18 l126 0 q11 -1 12 -16 q0 -15 -11 -16 l-130 0 q0 -4 -2 -12 q-1 -8 -2 -12 l94 0 q34 2 18 -36 q-9 -23 -33 -56 q16 -11 45 -24 q5 -3 8 -4 q18 -7 10 -22 q-5 -13 -25 -5 q-29 10 -59 31 q-3 2 -3 2 q-30 -21 -77 -34 q-4 -2 -5 -2 q-13 -3 -20 9 q-4 14 8 18 q3 1 11 4 q41 13 58 26 q-18 19 -38 58 q-2 -9 -9 -27 q-2 -5 -3 -8 q-20 -46 -42 -71 q-9 -9 -23 -2 q-10 9 -2 19 q1 2 5 7 q25 34 37 68 q8 23 17 69 q1 3 1 4 l-52 0 q-10 1 -9 17 q2 14 12 15 ZM156 55 q13 17 21 31 q3 6 2 9 q0 2 -5 2 l-48 0 q11 -22 30 -42 Z" /><glyph glyph-name="" unicode="&#x53d6;" d="M32 172 l-8 0 q-10 1 -10 15 q1 13 11 14 l112 0 q11 0 9 -12 l75 0 q23 1 19 -26 q-4 -59 -33 -115 q20 -30 36 -48 q12 -11 1 -22 q-11 -9 -22 1 q-17 17 -34 39 q-13 -17 -32 -34 q-12 -12 -22 -2 q-10 10 0 20 q22 23 37 44 q-20 39 -29 83 q-3 17 8 20 q16 6 20 -10 q10 -35 19 -61 q15 39 19 73 q2 9 -7 9 l-53 0 q-14 -1 -13 13 l-8 0 l0 -121 q3 1 5 1 q9 3 12 -9 q5 -14 -7 -18 q-3 -1 -10 -3 l0 -37 q-1 -11 -14 -12 q-13 1 -14 12 l0 30 q-5 -1 -20 -5 q-46 -11 -52 -12 q-17 -4 -19 10 q-3 12 10 16 q6 2 14 3 l0 144 ZM61 172 l0 -25 l39 0 l0 25 l-39 0 ZM61 119 l0 -25 l39 0 l0 25 l-39 0 ZM61 35 q0 0 38 10 l0 23 l-38 0 l0 -33 Z" /><glyph glyph-name="" unicode="&#x547c;" d="M111 194 q54 2 104 13 q6 1 8 1 q13 1 16 -11 q2 -13 -10 -17 q-21 -5 -43 -8 l0 -100 l47 0 q10 -1 11 -14 q-1 -14 -11 -15 l-46 0 l0 -46 q8 -33 -65 -22 q-13 2 -13 17 q3 13 17 12 q37 -5 31 1 l0 38 l-48 0 q-12 1 -14 14 q0 14 12 15 l49 0 l0 96 q-5 -2 -41 -2 q-13 0 -15 12 q-1 15 11 16 ZM47 161 l0 -126 q0 -4 5 -4 l8 0 q5 -1 5 4 l0 126 q0 5 -5 5 l-8 0 q-5 1 -5 -5 ZM202 95 q0 1 1 2 q7 22 13 53 q15 19 28 -3 q-6 -29 -15 -60 q-4 -11 -17 -9 q-12 5 -10 17 ZM98 137 q-3 13 10 18 q14 3 18 -10 q10 -35 15 -47 q4 -13 -9 -19 q-13 -4 -19 9 q-1 3 -5 16 q-9 28 -10 33 ZM93 22 q1 -20 -17 -19 l-41 0 q-16 0 -16 18 l0 156 q-2 19 17 17 l40 0 q17 0 17 -17 l0 -155 Z" /><glyph glyph-name="" unicode="&#x5524;" d="M139 171 q-2 -2 -5 -7 q-7 -8 -14 -16 l55 0 q3 4 9 16 q2 5 3 7 l-48 0 ZM81 17 q1 -20 -20 -18 l-29 0 q-15 -1 -14 18 l0 156 q0 19 15 19 l32 0 q16 0 16 -21 l0 -154 ZM46 24 l7 0 q3 0 3 3 l0 136 q0 3 -3 3 l-7 0 q-3 0 -3 -3 l0 -136 q0 -3 3 -3 ZM130 121 q-7 0 -7 -7 l0 -50 l20 0 q5 24 7 57 l-20 0 ZM93 36 q-11 1 -11 14 q1 13 12 14 l1 0 l0 66 q-23 9 -6 29 q19 21 32 41 q20 21 30 -2 l55 0 q25 -2 14 -25 q-3 -6 -7 -14 q-3 -6 -5 -11 l8 0 q19 1 18 -16 l0 -68 q11 -1 12 -14 q0 -13 -11 -14 l-53 0 q20 -24 53 -36 q16 -7 10 -20 q-6 -11 -18 -7 q-32 7 -69 48 q-24 -35 -69 -49 q-14 -4 -20 8 q-4 13 9 19 q45 13 56 37 l-41 0 ZM172 64 l34 0 l0 48 q1 9 -8 9 l-19 0 q-2 -28 -7 -57 Z" /><glyph glyph-name="" unicode="&#x56f4;" d="M21 181 q0 22 22 22 l167 0 q27 1 26 -24 l0 -174 q0 -22 -21 -22 l-171 0 q-23 0 -23 24 l0 174 ZM65 161 l45 0 q0 8 4 12 l-59 0 q-5 0 -5 -5 l0 -152 q0 -5 5 -5 l64 0 q-9 2 -9 10 l0 45 l-46 0 q-11 1 -12 13 q1 11 12 12 l46 0 l0 11 l-42 0 q-19 11 0 24 l42 0 l0 10 l-46 0 q-11 1 -12 13 q1 11 13 12 ZM130 11 l72 0 q5 0 5 5 l0 152 q0 5 -6 5 l-67 0 q5 -3 5 -12 l51 0 q11 -1 12 -12 q-1 -12 -12 -13 l-51 0 l0 -10 l49 0 q18 -13 -1 -24 l-48 0 l0 -11 l39 0 q22 2 20 -24 q2 -48 -34 -44 q-10 0 -16 2 q-14 18 4 26 q5 -1 13 -1 q7 -1 6 14 q0 2 -3 2 l-29 0 l0 -45 q0 -8 -9 -10 Z" /><glyph glyph-name="" unicode="&#x5728;" d="M31 184 l66 0 q2 4 4 10 q6 15 14 16 q17 2 19 -12 q0 -6 -4 -14 l101 0 q13 -1 13 -16 q-2 -13 -15 -14 l-110 0 q-17 -35 -43 -65 l0 -106 q-1 -10 -14 -10 q-13 1 -14 11 l0 75 q-7 -7 -12 -10 q-14 -8 -22 3 q-6 11 7 22 q16 13 25 25 l0 10 q1 20 19 15 q12 14 20 30 l-54 0 q-13 1 -14 15 q1 14 14 15 ZM108 102 l42 0 l0 31 q1 12 15 13 q14 -2 15 -14 l0 -30 l43 0 q14 -1 15 -14 q-1 -14 -14 -15 l-44 0 l0 -63 l52 0 q12 -1 13 -13 q-1 -13 -13 -14 l-132 0 q-14 1 -14 15 q2 11 16 12 l48 0 l0 63 l-44 0 q-12 1 -12 15 q1 13 14 14 Z" /><glyph glyph-name="" unicode="&#x5bf9;" d="M193 195 q1 12 15 13 q14 -1 15 -13 l0 -30 l14 0 q10 -1 11 -15 q-1 -14 -11 -15 l-14 0 l0 -135 q2 -29 -35 -25 q-29 2 -47 15 q-10 8 -4 17 q7 10 18 6 q8 -4 20 -8 q19 -6 18 11 l0 119 l-61 0 q-13 1 -14 15 q1 14 14 15 l61 0 l0 30 ZM31 159 q-13 1 -13 15 q0 14 13 15 l62 0 q21 2 19 -27 q0 -44 -17 -94 q16 -20 26 -34 q7 -12 -4 -22 q-13 -8 -22 3 q-15 18 -16 18 q-22 -31 -41 -44 q-12 -9 -23 -1 q-9 11 1 20 q26 22 44 51 q-5 6 -22 25 q-13 13 -13 14 q-12 13 -2 23 q11 10 24 -1 q15 -15 25 -29 q7 31 9 60 q1 9 -3 8 l-47 0 ZM147 49 q-4 11 -22 47 q-6 13 5 20 q13 4 21 -8 q2 -5 7 -15 q10 -20 14 -30 q5 -14 -6 -22 q-12 -5 -19 8 Z" /><glyph glyph-name="" unicode="&#x5e74;" d="M20 140 q17 17 35 51 q12 24 23 20 q16 -3 12 -17 q-1 -1 -2 -4 q-1 -2 -3 -6 l141 0 q14 -1 16 -15 q-1 -14 -15 -15 l-69 0 l0 -31 l65 0 q13 -1 14 -14 q0 -13 -13 -14 l-66 0 l0 -49 l75 0 q12 -1 13 -15 q-2 -13 -14 -14 l-74 0 l0 -34 q-1 -12 -15 -14 q-14 1 -15 13 l0 35 l-104 0 q-13 1 -13 15 q0 13 13 14 l23 0 l0 53 q-2 26 26 24 l55 0 l0 31 l-59 0 q-14 -23 -29 -36 q-14 -9 -24 0 q-7 10 4 22 ZM76 88 l0 -42 l52 0 l0 49 l-45 0 q-7 0 -7 -7 Z" /><glyph glyph-name="" unicode="&#x5fc3;" d="M140 75 q-13 61 -27 110 q-3 13 9 19 q15 4 20 -8 q15 -47 28 -112 q3 -16 -11 -21 q-14 -3 -19 12 ZM133 -23 q-65 -3 -60 43 l0 151 q1 15 15 17 q14 -2 15 -17 l0 -145 q0 -21 27 -21 l14 0 q30 -5 27 45 q1 12 16 12 q13 -2 14 -15 q2 -73 -58 -70 l-10 0 ZM216 18 q-6 30 -16 79 q-8 38 -12 60 q-1 13 11 16 q14 3 18 -9 q17 -60 30 -141 q2 -15 -12 -19 q-15 -1 -19 14 ZM12 13 q15 87 18 140 q2 15 17 15 q13 -2 12 -18 q-8 -103 -17 -143 q-4 -15 -18 -13 q-14 4 -12 19 Z" /><glyph glyph-name="" unicode="&#x60a8;" d="M10 110 q0 5 7 15 q19 29 30 71 q4 12 20 9 q11 -4 6 -18 q-1 -4 -4 -13 q-5 -16 -8 -24 l0 -88 q-1 -11 -14 -11 q-12 1 -13 12 l0 40 q-18 -15 -24 7 ZM73 148 q14 18 21 42 q5 16 14 15 q15 0 15 -12 l98 0 q18 0 20 -15 q0 -21 -7 -38 q-14 -16 -25 -1 q-1 3 1 12 q2 6 2 9 q-1 4 -4 5 l-33 0 l0 -81 q2 -33 -38 -25 q16 -14 20 -22 q6 -12 -1 -19 q-9 -8 -18 0 q-6 6 -15 15 q-20 18 -13 27 q4 6 10 7 q-8 14 8 19 q2 0 7 0 q4 -1 6 -1 q5 -1 5 4 l0 76 l-31 0 q-22 -48 -37 -46 q-21 4 -5 29 ZM173 22 q3 15 19 11 q-1 2 -4 7 q-9 10 -5 16 q15 18 32 -2 q24 -34 32 -51 q7 -14 -4 -20 q-15 -9 -27 15 q-2 2 -5 7 q-2 4 -12 19 q4 -53 -50 -47 l-28 0 q-49 -1 -46 28 l0 43 q1 10 14 10 q13 -1 14 -11 l0 -30 q-1 -15 11 -14 l40 0 q19 -3 19 19 ZM15 0 q12 14 22 38 q5 11 17 7 q11 -4 8 -16 q-9 -26 -23 -42 q-10 -11 -22 -6 q-11 8 -2 19 ZM80 89 q0 0 1 2 q16 20 28 45 q5 10 16 7 q11 -5 9 -15 q-13 -33 -34 -56 q-10 -8 -19 -1 q-9 9 -1 18 ZM209 78 q-5 10 -27 42 q-8 12 1 20 q11 8 22 -2 q15 -17 30 -47 q5 -15 -6 -22 q-12 -4 -20 9 Z" /><glyph glyph-name="" unicode="&#x611f;" d="M44 195 l100 0 q-1 13 11 15 q15 2 18 -9 q0 -4 0 -7 l30 0 q-5 10 7 16 q11 3 17 -7 q3 -6 10 -20 q4 -8 5 -11 q4 -10 -5 -16 q-10 -5 -17 4 q0 1 -1 2 q-2 3 -3 5 l-40 0 q3 -29 10 -46 q3 5 9 18 q2 5 2 5 q5 12 16 9 q11 -6 8 -19 q-5 -14 -21 -42 q8 -11 14 -12 q3 9 5 22 q2 10 13 10 q11 -1 11 -12 q-2 -30 -8 -43 q-5 -9 -11 -10 q-9 -3 -18 2 q-11 4 -23 20 q-8 -9 -16 -16 q-12 -9 -21 5 q-4 -2 -12 -2 l-61 0 q-14 0 -14 14 l0 38 q1 12 13 13 l66 0 q15 0 14 -13 l0 -31 q10 6 16 15 q-8 16 -14 43 q-3 -3 -11 -3 l-79 0 q-4 0 -7 2 q-6 -61 -17 -78 q-8 -12 -19 -6 q-10 7 -6 21 q12 34 12 77 l0 31 q-1 17 17 16 ZM56 154 q2 3 8 3 l79 0 q5 0 7 -3 q-2 8 -2 14 l-90 0 q-2 0 -2 -2 l0 -12 ZM85 83 q0 -3 3 -3 l35 0 q3 0 2 3 l0 11 q1 3 -2 3 l-35 0 q-3 0 -3 -3 l0 -11 ZM129 8 q-3 5 -8 13 q-3 6 -5 9 q-6 11 5 18 q11 7 18 -3 q8 -11 13 -23 q-1 -24 -23 -14 ZM73 4 l0 32 q1 14 16 15 q14 -1 15 -15 l0 -31 q0 -5 6 -5 l24 0 q34 0 31 11 l0 6 q1 13 16 14 q14 -1 15 -14 l0 -6 q1 -39 -47 -38 l-46 0 q-32 -2 -30 31 ZM11 -1 q12 20 21 42 q6 11 19 6 q12 -8 8 -20 q-9 -26 -23 -46 q-8 -9 -21 -1 q-10 8 -4 19 ZM219 -14 q-1 2 -4 8 q-11 22 -16 30 q-5 10 7 18 q12 5 19 -5 q1 -1 2 -4 q15 -26 19 -34 q3 -12 -8 -19 q-13 -5 -19 6 Z" /><glyph glyph-name="" unicode="&#x6302;" d="M110 181 l43 0 l0 17 q1 10 15 11 q13 -1 14 -11 l0 -17 l43 0 q12 -1 13 -14 q-1 -13 -13 -14 l-43 0 l0 -32 l54 0 q11 -1 12 -13 q0 -13 -11 -14 l-58 0 q3 -3 3 -8 l0 -18 l48 0 q12 -1 13 -13 q-1 -13 -12 -14 l-49 0 l0 -34 l53 0 q12 0 14 -11 q0 -13 -12 -14 l-145 0 q-11 1 -12 13 q1 11 12 12 l61 0 l0 34 l-50 0 q-10 1 -11 14 q1 12 11 13 l50 0 l0 18 q0 5 3 8 l-57 0 q-3 0 -6 1 q3 -7 -24 -25 l0 -74 q-1 -19 -22 -20 q-16 0 -27 4 q-17 18 7 25 q15 -4 14 4 l0 46 q-1 0 -3 -1 q-5 -3 -10 -5 q-12 -3 -18 8 q-5 12 5 19 q4 2 11 6 q9 4 14 7 l0 44 l-18 0 q-11 1 -12 14 q0 14 11 15 l19 0 l0 34 q1 11 14 12 q13 0 14 -11 l0 -35 l17 0 q12 -1 13 -14 q-1 -14 -13 -15 l-17 0 l0 -27 q11 7 19 2 q0 12 11 13 l55 0 l0 32 l-43 0 q-11 1 -12 14 q1 13 12 14 Z" /><glyph glyph-name="" unicode="&#x662f;" d="M32 180 q-3 24 21 22 l142 0 q27 3 24 -22 l0 -45 q4 -27 -25 -24 l-139 0 q-27 -4 -23 24 l0 45 ZM190 167 l0 10 l-130 0 l0 -10 l130 0 ZM60 136 l130 0 l0 9 l-130 0 l0 -9 ZM23 103 l210 0 q12 -1 13 -13 q-1 -13 -13 -14 l-88 0 l0 -15 l73 0 q14 -1 15 -15 q-2 -13 -16 -14 l-72 0 l0 -22 l86 0 q15 -1 16 -14 q-1 -13 -16 -14 l-81 0 q-44 -2 -86 29 q-20 -30 -33 -36 q-25 -3 -17 22 q1 2 5 4 q21 21 35 60 q4 12 17 10 q13 -3 11 -15 q-1 -2 -1 -5 q-3 -10 -5 -14 q23 -18 38 -22 l0 61 l-90 0 q-13 1 -14 13 q0 13 13 14 Z" /><glyph glyph-name="" unicode="&#x670b;" d="M94 135 l0 32 q0 3 -3 3 l-32 0 q-4 0 -3 -3 l0 -32 l38 0 ZM206 136 l0 30 q0 3 -3 3 l-35 0 q-3 0 -3 -3 l0 -30 l41 0 ZM94 76 l0 31 l-38 0 l0 -31 l38 0 ZM206 107 l-41 0 l0 -31 l41 0 l0 31 ZM15 -7 q13 45 13 106 l0 85 q0 16 17 16 l64 0 q13 1 13 -17 l0 -174 q-1 -40 -45 -31 q-14 3 -15 16 q2 13 16 12 q18 -3 16 5 l0 37 l-40 0 q-4 -41 -12 -63 q-6 -13 -18 -10 q-12 5 -9 18 ZM137 183 q-1 17 16 16 l64 0 q17 -1 17 -18 l0 -177 q-2 -34 -50 -27 q-12 2 -13 15 q2 13 14 12 q23 -4 21 10 l0 34 l-42 0 q-3 -33 -10 -60 q-4 -14 -18 -11 q-12 5 -9 20 q10 36 10 96 l0 90 Z" /><glyph glyph-name="" unicode="&#x6765;" d="M34 189 l80 0 l0 11 q1 11 14 11 q13 -1 14 -12 l0 -10 l80 0 q12 -1 14 -13 q0 -14 -12 -15 l-82 0 l0 -58 l27 0 q2 7 8 23 q5 13 7 18 q5 12 19 9 q12 -4 8 -17 q-1 -3 -4 -11 q-5 -16 -8 -22 l37 0 q11 -1 11 -14 q-1 -13 -12 -14 l-75 0 q32 -44 78 -66 q12 -6 6 -18 q-8 -13 -20 -7 q-44 20 -82 69 l0 -69 q-1 -11 -14 -12 q-13 1 -14 13 l0 69 q-27 -43 -77 -69 q-14 -7 -23 3 q-7 12 6 19 q48 24 77 68 l-73 0 q-11 1 -12 14 q0 13 11 14 l38 0 q0 1 -1 2 q-1 1 -2 4 l-11 25 q-4 12 7 18 q13 4 19 -8 q4 -7 9 -22 q1 -4 2 -5 q4 -9 1 -14 l29 0 l0 58 l-81 0 q-11 1 -11 14 q1 13 12 14 Z" /><glyph glyph-name="" unicode="&#x6811;" d="M24 164 l16 0 l0 34 q1 11 13 12 q13 0 14 -11 l0 -35 l9 0 q10 -1 11 -14 q-1 -13 -11 -14 l-9 0 l0 -6 q0 -1 6 -9 q19 -24 24 -38 q-7 -22 -24 -9 q-1 2 -3 6 q-2 3 -3 5 l0 -101 q-1 -11 -13 -12 q-13 1 -14 12 l0 74 q-4 -11 -11 -16 q-7 -7 -17 -1 q-9 8 -4 17 q28 42 31 78 l-15 0 q-10 1 -11 14 q1 13 11 14 ZM176 165 l27 0 l0 34 q1 11 14 11 q12 -1 13 -12 l0 -33 l8 0 q11 -1 12 -14 q0 -14 -11 -15 l-9 0 l0 -135 q2 -35 -49 -21 q-11 4 -9 15 q3 11 14 9 q19 -4 17 5 l0 127 l-28 0 q-11 1 -12 11 q-6 -37 -19 -71 q13 -26 25 -57 q4 -12 -7 -18 q-13 -3 -19 7 q-6 18 -15 36 q-13 -29 -34 -52 q-10 -8 -19 -2 q-9 8 -2 18 q1 2 6 10 q23 33 33 58 q-11 25 -27 51 q-5 9 5 16 q11 5 18 -3 q9 -11 18 -29 q9 26 11 49 q0 3 -3 3 l-38 0 q-9 1 -11 13 q1 13 10 14 l53 0 q20 0 18 -21 q0 -6 -1 -11 q2 7 11 7 ZM168 55 q-5 33 -9 48 q-2 13 9 16 q12 1 17 -11 q7 -24 9 -49 q1 -13 -10 -15 q-14 -1 -16 11 Z" /><glyph glyph-name="" unicode="&#x6c0f;" d="M30 173 q0 22 28 22 q91 0 140 8 q16 2 18 -11 q1 -14 -15 -18 q-20 -4 -54 -6 q1 -23 4 -44 l64 0 q14 -1 15 -14 q-2 -13 -16 -14 l-58 0 q19 -69 47 -85 q6 -2 7 33 q1 12 14 12 q11 -2 12 -14 q0 -67 -29 -66 q-56 13 -82 120 l-66 0 l0 -76 q-1 -12 11 -9 q2 1 11 4 q31 9 37 12 q16 6 23 -5 q5 -13 -10 -22 q-38 -14 -75 -21 q-26 -4 -26 23 l0 171 ZM59 124 l62 0 q0 2 -1 8 q-2 30 -2 35 l-52 0 q-6 -1 -7 -7 l0 -36 Z" /><glyph glyph-name="" unicode="&#x6d88;" d="M94 140 l47 0 l0 60 q1 9 14 10 q13 -2 14 -11 l0 -59 l52 0 q17 0 17 -18 l0 -119 q4 -35 -56 -24 q-16 2 -19 13 q-1 12 12 14 q5 0 15 -1 q21 -3 20 5 l0 16 l-107 0 l0 -41 q-1 -10 -14 -11 q-13 0 -14 10 l0 135 q0 22 19 21 ZM23 186 q-7 10 1 19 q10 7 19 -1 q3 -4 8 -9 q8 -8 12 -13 q8 -11 0 -20 q-10 -8 -19 1 q-7 7 -19 21 q1 -2 -2 2 ZM94 151 q-10 12 -21 28 q-8 12 2 20 q12 7 21 -3 q16 -20 20 -27 q8 -13 -1 -22 q-11 -7 -21 4 ZM196 167 q3 5 15 22 q5 7 6 9 q8 9 19 3 q10 -8 4 -20 q-5 -12 -19 -29 q-11 -13 -22 -7 q-11 8 -3 22 ZM42 96 q-5 5 -16 15 q-7 7 -9 9 q-8 9 0 19 q9 9 19 1 q12 -10 25 -24 q9 -10 1 -20 q-10 -9 -20 0 ZM104 96 l106 0 l0 12 q0 5 -4 5 l-97 0 q-5 0 -5 -4 l0 -13 ZM17 -4 q4 10 12 35 q8 24 11 35 q5 14 18 11 q12 -5 9 -20 q-12 -43 -23 -70 q-7 -13 -19 -10 q-12 5 -8 19 ZM210 53 l0 17 l-106 0 l0 -17 l106 0 Z" /><glyph glyph-name="" unicode="&#x739b;" d="M24 168 q-10 1 -10 14 q0 12 10 13 l64 0 q10 -1 11 -13 q-1 -13 -11 -14 l-15 0 l0 -47 l17 0 q11 -1 12 -14 q-1 -12 -13 -13 l-16 0 l0 -53 q2 1 6 3 q6 3 9 4 q12 3 15 -8 l85 0 q14 -1 15 -14 q-2 -13 -16 -14 l-76 0 q-18 -2 -18 8 q-28 -14 -63 -27 q-11 -3 -16 7 q-5 13 5 17 q24 9 27 12 l0 65 l-19 0 q-11 1 -12 14 q1 12 13 13 l18 0 l0 47 l-22 0 ZM113 172 q-12 1 -13 14 q1 13 13 14 l94 0 q23 1 19 -23 l-6 -78 l7 0 q15 1 15 -21 q0 -25 -2 -51 q1 -69 -69 -50 q-13 4 -12 18 q4 11 18 8 q35 -9 34 19 q1 7 2 20 q1 13 1 20 q0 9 -7 9 l-84 0 q-17 -1 -14 16 l7 64 q3 12 16 13 q14 -2 13 -15 l-4 -50 l49 0 l6 68 q0 5 -6 5 l-77 0 Z" /><glyph glyph-name="" unicode="&#x7684;" d="M41 171 l12 0 q0 2 1 6 q3 11 5 19 q4 12 18 12 q13 -3 12 -15 q-1 -13 -5 -22 l17 0 q21 0 20 -18 l0 -27 q14 26 21 55 q0 1 1 4 q3 18 11 21 q19 3 20 -11 q0 -9 -3 -19 l42 0 q28 2 26 -22 l0 -24 q0 -82 -5 -114 q-3 -30 -16 -36 q-22 -14 -71 3 q-12 5 -9 17 q4 11 17 9 q3 -1 12 -3 q22 -5 27 -4 q10 0 13 29 q3 27 3 109 q-1 9 -7 9 l-40 0 q-18 -44 -27 -48 q-8 -5 -15 1 l0 -89 q2 -27 -22 -25 l-52 0 q-28 -3 -26 24 l0 140 q-1 20 20 19 ZM49 91 l44 0 l0 47 q0 5 -3 5 l-37 0 q-3 0 -4 -4 l0 -48 ZM168 41 q-6 15 -22 47 q-6 13 5 20 q13 6 21 -6 q17 -26 23 -49 q4 -15 -8 -21 q-13 -5 -19 9 ZM54 14 l35 0 q4 0 4 5 l0 46 l-44 0 l0 -46 q0 -5 5 -5 Z" /><glyph glyph-name="" unicode="&#x771f;" d="M23 198 l90 0 q-1 14 14 14 q16 0 16 -14 l88 0 q13 -1 14 -13 q-1 -13 -14 -14 l-88 0 l0 -9 l61 0 q20 1 19 -19 l0 -104 l9 0 q14 -1 16 -13 q-1 -13 -15 -14 l-42 0 q7 -2 18 -5 q17 -4 25 -7 q13 -4 9 -18 q-5 -12 -19 -7 q-7 2 -27 8 q-39 11 -43 12 q-15 4 -9 17 l-38 0 q7 -12 -7 -18 q-33 -15 -76 -20 q-13 -1 -15 12 q0 13 14 14 q25 1 53 12 l-55 0 q-11 1 -12 14 q1 12 13 13 l11 0 l0 103 q0 20 18 20 l62 0 l0 9 l-90 0 q-10 1 -11 14 q1 12 11 13 ZM61 127 l134 0 l0 7 q0 3 -3 3 l-128 0 q-2 -1 -3 -3 l0 -7 ZM195 108 l-134 0 l0 -10 l134 0 l0 10 ZM61 79 l0 -10 l134 0 l0 10 l-134 0 ZM61 50 l0 -11 l134 0 l0 11 l-134 0 Z" /><glyph glyph-name="" unicode="&#x7b2c;" d="M19 161 q16 20 31 44 q21 13 26 -9 q-1 -2 -3 -5 q-1 -1 -1 -2 l49 0 q8 -1 10 -9 q7 11 13 21 q5 8 12 10 q16 1 17 -10 q0 -6 -5 -13 l68 0 q10 -1 11 -13 q0 -13 -10 -14 l-36 0 q8 -21 -6 -23 l13 0 q23 1 21 -17 l0 -25 q2 -24 -20 -21 l-66 0 l0 -12 l71 0 q24 1 23 -17 l0 -21 q2 -48 -36 -45 q-21 0 -30 3 q-13 5 -11 17 q4 11 17 9 q3 0 10 -2 q9 -1 11 -1 q11 -1 10 13 l0 12 q0 6 -6 6 l-59 0 l0 -56 q-1 -10 -14 -11 q-14 1 -15 11 l0 45 q-35 -37 -78 -52 q-16 -5 -22 5 q-5 14 9 20 q36 13 64 38 l-43 0 q-23 -2 -21 20 l0 27 q-1 17 21 16 l70 0 l0 12 l-73 0 q-12 1 -12 14 q1 12 14 12 l35 0 q-3 3 -8 21 q-1 2 -1 4 l-13 0 q-5 -9 -14 -18 q-10 -10 -22 -3 q-9 8 -1 19 ZM117 158 q1 1 2 4 q0 -1 1 1 l-23 0 q5 -10 5 -18 q0 -5 -4 -7 l85 0 q-7 2 -10 16 q-1 5 -2 7 l-18 0 q-10 -13 -5 -7 q-5 -6 -6 -7 q-9 -9 -20 -5 q-12 6 -5 16 ZM143 100 l56 0 q3 0 3 3 l0 6 q0 3 -3 3 l-56 0 l0 -12 ZM53 63 l61 0 l0 12 l-61 0 q-3 0 -3 -3 l0 -6 q0 -3 3 -3 Z" /><glyph glyph-name="" unicode="&#x89c2;" d="M109 70 l0 114 q0 17 17 17 l83 0 q22 -2 23 -17 l0 -117 q-1 -10 -14 -10 q-13 0 -14 10 l0 98 q0 8 -5 8 l-57 0 q-6 0 -6 -7 l0 -96 q-1 -13 -13 -13 q-13 0 -14 13 ZM27 162 q-12 1 -13 14 q1 14 12 15 l50 0 q26 1 23 -21 q-4 -52 -15 -84 q11 -14 18 -29 q6 -12 -3 -21 q-10 -7 -18 4 q-1 1 -4 5 q-4 7 -7 10 q-12 -32 -33 -54 q-8 -7 -20 -1 q-9 6 -3 16 q29 37 39 66 q-4 6 -23 29 q-4 5 -5 6 q-6 8 2 16 q8 7 16 1 q14 -12 19 -19 q6 25 6 40 q0 8 -3 7 l-38 0 ZM90 0 q66 37 66 117 q0 15 0 26 q1 11 14 12 q13 -1 14 -12 q0 -10 0 -21 q0 -16 -4 -38 q11 0 12 -10 l0 -62 q0 -6 9 -7 l6 0 q14 -3 14 22 q1 11 14 12 q12 -1 12 -12 q1 -51 -30 -48 l-27 0 q-26 -1 -25 22 l0 35 q-17 -35 -60 -59 q-12 -6 -20 5 q-7 12 5 18 Z" /><glyph glyph-name="" unicode="&#x8bed;" d="M93 169 q-10 1 -11 13 q0 13 10 14 l139 0 q10 -1 11 -13 q-1 -13 -11 -14 l-67 0 l-3 -17 l49 0 q17 1 16 -18 l0 -35 l6 0 q11 -1 12 -13 q0 -13 -11 -14 l-145 0 q-11 1 -12 14 q1 12 12 13 l33 0 l6 27 l-27 0 q-12 1 -13 13 q1 12 13 13 l31 0 l3 17 l-41 0 ZM151 99 l45 0 l0 27 l-40 0 l-5 -27 ZM127 -21 q-32 -2 -29 19 l0 46 q-2 20 22 19 l85 0 q27 1 26 -19 l0 -44 q3 -24 -26 -21 l-78 0 ZM127 29 l0 -20 q0 -5 6 -5 l64 0 q6 0 6 5 l0 21 q1 7 -7 6 l-63 0 q-6 0 -6 -7 ZM56 157 q-2 2 -7 6 q-15 14 -22 19 q-12 10 -3 21 q9 10 23 0 q17 -12 30 -25 q10 -11 0 -22 q-10 -9 -21 1 ZM91 28 q-20 -30 -33 -45 q-11 -10 -19 -7 q-9 4 -8 19 q1 26 1 45 l0 71 q0 5 -3 5 l-8 0 q-12 1 -13 14 q1 12 13 13 l25 0 q14 3 13 -21 l0 -91 l10 13 q8 10 18 4 q11 -9 4 -20 Z" /><glyph glyph-name="" unicode="&#x8c22;" d="M56 165 q-2 2 -13 12 q-11 11 -13 12 q-8 8 0 17 q8 9 18 3 q14 -9 27 -25 q6 -9 -2 -18 q-9 -8 -17 -1 ZM51 -17 q-19 -11 -20 17 l0 122 q0 3 -2 3 l-5 0 q-12 1 -14 14 q1 13 13 14 l24 0 q12 0 12 -14 l0 -112 q-1 -4 8 8 q8 7 18 -1 q7 -9 -1 -18 q23 17 38 33 l-41 0 q-10 1 -11 14 q1 12 11 13 l4 0 l0 93 q-1 17 17 17 l7 0 l2 17 q2 10 16 10 q13 -2 12 -13 l-1 -14 l10 0 q17 0 17 -15 l0 -174 q1 -35 -44 -19 q-10 4 -8 16 q4 12 14 10 q13 -4 13 3 q0 1 0 1 l0 22 q-24 -26 -52 -44 q-16 -10 -23 9 q-8 -8 -14 -12 ZM182 175 l23 0 l0 21 q1 12 14 12 q14 -1 15 -12 l0 -22 l5 0 q12 -1 13 -14 q-1 -14 -13 -15 l-5 0 l0 -148 q0 -35 -52 -21 q-11 4 -11 15 q3 12 14 11 q23 -3 20 5 l0 138 l-23 0 q-11 1 -12 15 q1 14 12 15 ZM140 160 l-30 0 l0 -11 l30 0 l0 11 ZM110 124 l0 -11 l30 0 l0 11 l-30 0 ZM140 87 l-30 0 l0 -11 l30 0 l0 11 ZM169 123 q-1 11 9 13 q9 0 12 -10 q7 -42 9 -82 q0 -11 -10 -12 q-10 1 -11 11 q-3 39 -9 80 Z" /><glyph glyph-name="" unicode="&#x8fd9;" d="M148 179 q-4 8 -7 15 q-3 10 8 16 q15 4 21 -5 q4 -6 9 -18 q3 -5 4 -8 l49 0 q13 -1 14 -14 q-1 -14 -14 -15 l-16 0 q-7 -33 -24 -60 q24 -16 41 -31 q11 -11 3 -22 q-10 -11 -22 -2 q-2 2 -10 7 q-23 19 -30 23 q-29 -25 -73 -36 q-16 -4 -21 9 q-3 13 13 19 q36 11 54 26 q-9 6 -26 15 q-10 5 -16 8 q-14 8 -7 21 q8 10 24 4 q22 -10 44 -24 q12 18 19 43 l-91 0 q-14 1 -15 15 q1 13 15 14 l54 0 ZM50 156 q-8 11 -26 27 q-7 8 2 17 q8 7 18 0 q13 -9 28 -26 q6 -9 -3 -18 q-11 -7 -19 0 ZM25 98 q-12 1 -12 15 q2 12 14 13 l24 0 q19 1 18 -19 l0 -69 q10 -25 71 -29 l93 0 q14 -1 16 -13 q-1 -13 -15 -14 l-86 0 q-46 0 -84 20 q-7 3 -8 3 q-4 0 -18 -15 q-4 -5 -5 -6 q-10 -9 -20 -1 q-8 8 0 18 q1 1 4 5 q23 26 23 32 l0 57 q0 3 -3 3 l-12 0 Z" /><glyph glyph-name="" unicode="&#x91cc;" d="M47 72 q-21 -1 -19 20 l0 86 q-1 20 17 19 l166 0 q20 1 19 -19 l0 -86 q2 -22 -19 -20 l-67 0 l0 -18 l78 0 q12 -1 13 -13 q-1 -13 -13 -14 l-78 0 l0 -18 l91 0 q10 -1 11 -12 q-1 -12 -11 -13 l-213 0 q-11 1 -12 13 q1 11 12 12 l92 0 l0 18 l-79 0 q-11 1 -12 14 q1 12 12 13 l79 0 l0 18 l-67 0 ZM144 169 l0 -21 l57 0 l0 17 q0 4 -4 4 l-53 0 ZM113 169 l-53 0 q-4 0 -4 -4 l0 -17 l57 0 l0 21 ZM113 100 l0 21 l-57 0 l0 -17 q0 -4 4 -4 l53 0 ZM202 121 l-58 0 l0 -21 l54 0 q4 0 4 4 l0 17 Z" /></font>
</defs>
</svg>
